STARTFONT 2.1
FONT -Adobe-ITC Avant Garde Gothic-Demi-O-Normal--20-140-100-100-P-103-ISO8859-1
SIZE 14 100 100
FONTBOUNDINGBOX 23 23 -2 -4

STARTPROPERTIES 30
FOUNDRY "Adobe"
FAMILY_NAME "ITC Avant Garde Gothic"
WEIGHT_NAME "Demi"
SLANT "O"
SETWIDTH_NAME "Normal"
ADD_STYLE_NAME ""
PIXEL_SIZE 20
POINT_SIZE 140
RESOLUTION_X 100
RESOLUTION_Y 100
SPACING "P"
AVERAGE_WIDTH 103
CHARSET_REGISTRY "ISO8859"
CHARSET_ENCODING "1"
CAP_HEIGHT 14
X_HEIGHT 11
FACE_NAME "ITC Avant Garde Gothic Demi Oblique"
COPYRIGHT "Copyright (c) 1984, 1987 Adobe Systems Incorporated. All Rights Reserved. Copyright (c) 1988, 1991 Digital Equipment Corporation. All Rights Reserved."
NOTICE "ITC Avant Garde Gothic is a registered trademark of International Typeface Corporation."
_DEC_DEVICE_FONTNAMES "PS=AvantGarde-DemiOblique"
_DEC_PRODUCTINFO "DECwindows Fonts V2.2, 07-Nov-1991"
RELATIVE_SETWIDTH 50
RELATIVE_WEIGHT 60
CHARSET_COLLECTIONS "ASCII ISO8859-1 ADOBE-STANDARD"
FULL_NAME "ITC Avant Garde Gothic Demi Oblique"
WEIGHT 10
QUAD_WIDTH 11
DEFAULT_CHAR 32
FONT_DESCENT 4
FONT_ASCENT 17
ENDPROPERTIES

CHARS 191

STARTCHAR space
ENCODING 32
SWIDTH 280 0
DWIDTH 5 0
BBX 1 1 0 0
BITMAP
00
ENDCHAR

STARTCHAR exclam
ENCODING 33
SWIDTH 280 0
DWIDTH 7 0
BBX 4 14 1 0
BITMAP
30
30
30
30
30
60
60
60
60
60
00
C0
C0
C0
ENDCHAR

STARTCHAR quotedbl
ENCODING 34
SWIDTH 360 0
DWIDTH 7 0
BBX 5 5 2 9
BITMAP
48
48
90
90
90
ENDCHAR

STARTCHAR numbersign
ENCODING 35
SWIDTH 600 0
DWIDTH 10 0
BBX 10 14 0 0
BITMAP
0CC0
0CC0
1980
1980
7FC0
7FC0
3300
3300
FF80
FF80
6600
6600
CC00
CC00
ENDCHAR

STARTCHAR dollar
ENCODING 36
SWIDTH 560 0
DWIDTH 10 0
BBX 9 16 0 -1
BITMAP
0600
0600
0F00
3F80
3180
6000
7000
3E00
0F00
0300
C300
C600
FE00
7800
3000
3000
ENDCHAR

STARTCHAR percent
ENCODING 37
SWIDTH 860 0
DWIDTH 15 0
BBX 14 14 0 0
BITMAP
3860
7C60
CCC0
CCC0
CD80
F980
7300
0338
067C
06CC
0CCC
0CCC
18F8
1870
ENDCHAR

STARTCHAR ampersand
ENCODING 38
SWIDTH 680 0
DWIDTH 13 0
BBX 12 14 0 0
BITMAP
0F00
1F80
3180
3180
3B00
1F00
3C30
7E30
6760
C3E0
C1C0
E3E0
7F70
3C30
ENDCHAR

STARTCHAR quoteright
ENCODING 39
SWIDTH 280 0
DWIDTH 4 0
BBX 2 5 1 9
BITMAP
C0
C0
C0
40
80
ENDCHAR

STARTCHAR parenleft
ENCODING 40
SWIDTH 380 0
DWIDTH 6 0
BBX 5 16 0 -2
BITMAP
08
18
30
30
60
60
C0
C0
C0
C0
C0
C0
60
60
30
10
ENDCHAR

STARTCHAR parenright
ENCODING 41
SWIDTH 380 0
DWIDTH 6 0
BBX 5 16 0 -2
BITMAP
40
60
30
30
18
18
18
18
18
18
30
30
60
60
C0
80
ENDCHAR

STARTCHAR asterisk
ENCODING 42
SWIDTH 440 0
DWIDTH 8 0
BBX 7 5 0 9
BITMAP
24
18
FE
30
48
ENDCHAR

STARTCHAR plus
ENCODING 43
SWIDTH 600 0
DWIDTH 11 0
BBX 9 10 1 1
BITMAP
0C00
0C00
0C00
0C00
FF80
FF80
1800
1800
1800
1800
ENDCHAR

STARTCHAR comma
ENCODING 44
SWIDTH 280 0
DWIDTH 5 0
BBX 2 5 0 -2
BITMAP
C0
C0
C0
40
80
ENDCHAR

STARTCHAR minus
ENCODING 45
SWIDTH 600 0
DWIDTH 12 0
BBX 9 2 1 5
BITMAP
FF80
FF80
ENDCHAR

STARTCHAR period
ENCODING 46
SWIDTH 280 0
DWIDTH 5 0
BBX 2 3 0 0
BITMAP
C0
C0
C0
ENDCHAR

STARTCHAR slash
ENCODING 47
SWIDTH 460 0
DWIDTH 10 0
BBX 9 16 0 -2
BITMAP
0180
0180
0300
0300
0600
0600
0C00
0C00
1800
1800
3000
3000
6000
6000
C000
C000
ENDCHAR

STARTCHAR zero
ENCODING 48
SWIDTH 560 0
DWIDTH 10 0
BBX 9 14 0 0
BITMAP
0F00
3F80
3180
6180
6180
6180
6180
6300
C300
C300
C300
C600
FE00
7800
ENDCHAR

STARTCHAR one
ENCODING 49
SWIDTH 560 0
DWIDTH 10 0
BBX 4 14 3 0
BITMAP
F0
F0
30
30
60
60
60
60
60
C0
C0
C0
C0
C0
ENDCHAR

STARTCHAR two
ENCODING 50
SWIDTH 560 0
DWIDTH 10 0
BBX 9 14 0 0
BITMAP
0E00
3F00
3380
6180
6180
0180
0300
0700
0E00
3800
7000
E000
FF00
FF00
ENDCHAR

STARTCHAR three
ENCODING 51
SWIDTH 560 0
DWIDTH 10 0
BBX 9 14 0 0
BITMAP
0F00
1F80
3180
3180
0300
0F00
0E00
0300
0300
0300
C300
C600
FE00
7800
ENDCHAR

STARTCHAR four
ENCODING 52
SWIDTH 560 0
DWIDTH 10 0
BBX 9 14 0 0
BITMAP
0180
0380
0780
0D80
1B00
1B00
3300
6300
6600
C600
FF80
FF80
0600
0600
ENDCHAR

STARTCHAR five
ENCODING 53
SWIDTH 560 0
DWIDTH 10 0
BBX 9 14 0 0
BITMAP
1F80
3F80
3000
3000
6000
7E00
7F00
6300
0300
0300
C300
C600
FE00
7800
ENDCHAR

STARTCHAR six
ENCODING 54
SWIDTH 560 0
DWIDTH 10 0
BBX 9 14 0 0
BITMAP
0700
0E00
1C00
3800
3000
7E00
7F00
E380
C180
C180
C180
E300
7F00
3C00
ENDCHAR

STARTCHAR seven
ENCODING 55
SWIDTH 560 0
DWIDTH 10 0
BBX 8 14 1 0
BITMAP
FF
FF
06
06
0C
0C
18
18
30
30
60
60
C0
C0
ENDCHAR

STARTCHAR eight
ENCODING 56
SWIDTH 560 0
DWIDTH 10 0
BBX 9 14 0 0
BITMAP
0F00
1F80
3180
3180
3180
1B00
3E00
6600
C300
C300
C300
C600
FE00
7800
ENDCHAR

STARTCHAR nine
ENCODING 57
SWIDTH 560 0
DWIDTH 10 0
BBX 9 14 0 0
BITMAP
1E00
7F00
6380
C180
C180
C180
E380
7F00
3F00
0600
0E00
1C00
3800
7000
ENDCHAR

STARTCHAR colon
ENCODING 58
SWIDTH 280 0
DWIDTH 5 0
BBX 3 10 0 0
BITMAP
60
60
60
00
00
00
00
C0
C0
C0
ENDCHAR

STARTCHAR semicolon
ENCODING 59
SWIDTH 280 0
DWIDTH 5 0
BBX 3 12 0 -2
BITMAP
60
60
60
00
00
00
00
C0
C0
C0
40
80
ENDCHAR

STARTCHAR less
ENCODING 60
SWIDTH 600 0
DWIDTH 11 0
BBX 10 10 0 1
BITMAP
00C0
03C0
0F00
3C00
F000
C000
F000
3C00
0F00
0300
ENDCHAR

STARTCHAR equal
ENCODING 61
SWIDTH 600 0
DWIDTH 11 0
BBX 9 5 0 4
BITMAP
7F80
7F80
0000
FF00
FF00
ENDCHAR

STARTCHAR greater
ENCODING 62
SWIDTH 600 0
DWIDTH 11 0
BBX 10 10 0 1
BITMAP
3000
3C00
0F00
03C0
00C0
03C0
0F00
3C00
F000
C000
ENDCHAR

STARTCHAR question
ENCODING 63
SWIDTH 560 0
DWIDTH 9 0
BBX 7 14 1 0
BITMAP
3C
7E
C6
C6
06
0E
1C
38
70
60
00
C0
C0
C0
ENDCHAR

STARTCHAR at
ENCODING 64
SWIDTH 740 0
DWIDTH 17 0
BBX 16 14 0 0
BITMAP
03F8
0FFE
3C06
31B3
67F3
6673
CC33
CC63
CCE6
CFEC
6778
7004
3FF8
0FE0
ENDCHAR

STARTCHAR A
ENCODING 65
SWIDTH 740 0
DWIDTH 13 0
BBX 12 14 -1 0
BITMAP
0300
0380
0780
0780
0CC0
0CC0
18C0
1860
3FE0
3FE0
6060
6030
C030
C030
ENDCHAR

STARTCHAR B
ENCODING 66
SWIDTH 580 0
DWIDTH 10 0
BBX 9 14 0 0
BITMAP
3F00
3F80
3180
3180
6300
7E00
7F00
6380
6180
C180
C180
C300
FF00
FC00
ENDCHAR

STARTCHAR C
ENCODING 67
SWIDTH 780 0
DWIDTH 14 0
BBX 13 14 0 0
BITMAP
03C0
0FF0
3C30
3018
6018
6000
C000
C000
C000
C030
C070
60E0
7FC0
1F00
ENDCHAR

STARTCHAR D
ENCODING 68
SWIDTH 700 0
DWIDTH 13 0
BBX 12 14 0 0
BITMAP
3F80
3FE0
3060
3030
6030
6030
6030
6030
6060
C060
C0C0
C3C0
FF00
FC00
ENDCHAR

STARTCHAR E
ENCODING 69
SWIDTH 520 0
DWIDTH 10 0
BBX 9 14 0 0
BITMAP
3F80
3F80
3000
3000
6000
6000
7F00
7F00
6000
C000
C000
C000
FE00
FE00
ENDCHAR

STARTCHAR F
ENCODING 70
SWIDTH 480 0
DWIDTH 9 0
BBX 9 14 0 0
BITMAP
3F80
3F80
3000
3000
6000
6000
7F00
7F00
6000
C000
C000
C000
C000
C000
ENDCHAR

STARTCHAR G
ENCODING 71
SWIDTH 840 0
DWIDTH 14 0
BBX 13 14 0 0
BITMAP
03C0
0FF0
3C30
3018
6018
6000
C000
C3F8
C3F8
C030
C070
60E0
7FC0
1F00
ENDCHAR

STARTCHAR H
ENCODING 72
SWIDTH 680 0
DWIDTH 13 0
BBX 12 14 0 0
BITMAP
3030
3030
3030
3030
6060
6060
7FE0
7FE0
6060
C0C0
C0C0
C0C0
C0C0
C0C0
ENDCHAR

STARTCHAR I
ENCODING 73
SWIDTH 280 0
DWIDTH 5 0
BBX 4 14 0 0
BITMAP
30
30
30
30
60
60
60
60
60
C0
C0
C0
C0
C0
ENDCHAR

STARTCHAR J
ENCODING 74
SWIDTH 480 0
DWIDTH 8 0
BBX 8 14 -1 0
BITMAP
03
03
03
03
06
06
06
06
06
0C
0C
CC
F8
70
ENDCHAR

STARTCHAR K
ENCODING 75
SWIDTH 620 0
DWIDTH 11 0
BBX 11 14 0 0
BITMAP
3060
30C0
3180
3300
6600
6C00
7800
7800
7C00
CE00
C700
C300
C180
C1C0
ENDCHAR

STARTCHAR L
ENCODING 76
SWIDTH 440 0
DWIDTH 8 0
BBX 7 14 0 0
BITMAP
30
30
30
30
60
60
60
60
60
C0
C0
C0
FE
FE
ENDCHAR

STARTCHAR M
ENCODING 77
SWIDTH 900 0
DWIDTH 17 0
BBX 16 14 0 0
BITMAP
380F
380F
381B
2C1B
6C36
6C36
6666
6666
66C6
C6CC
C38C
C38C
C30C
C30C
ENDCHAR

STARTCHAR N
ENCODING 78
SWIDTH 740 0
DWIDTH 14 0
BBX 13 14 0 0
BITMAP
3018
3818
3818
3C18
6C30
6630
6630
6330
6330
C1A0
C1E0
C0E0
C0E0
C060
ENDCHAR

STARTCHAR O
ENCODING 79
SWIDTH 840 0
DWIDTH 14 0
BBX 13 14 0 0
BITMAP
03C0
0FF0
3C30
3018
6018
6018
C018
C018
C030
C030
C060
61E0
7F80
1E00
ENDCHAR

STARTCHAR P
ENCODING 80
SWIDTH 560 0
DWIDTH 10 0
BBX 10 14 0 0
BITMAP
3F80
3FC0
30C0
30C0
60C0
6180
7F80
7E00
6000
C000
C000
C000
C000
C000
ENDCHAR

STARTCHAR Q
ENCODING 81
SWIDTH 840 0
DWIDTH 14 0
BBX 13 14 0 0
BITMAP
03C0
0FF0
3C30
3018
6018
6018
C018
C018
F830
FE30
C7E0
61E0
7FF8
1E78
ENDCHAR

STARTCHAR R
ENCODING 82
SWIDTH 580 0
DWIDTH 11 0
BBX 10 14 0 0
BITMAP
3F80
3FC0
30C0
30C0
60C0
6180
7F80
7E00
6600
C700
C300
C380
C180
C1C0
ENDCHAR

STARTCHAR S
ENCODING 83
SWIDTH 520 0
DWIDTH 10 0
BBX 9 14 0 0
BITMAP
0F00
3F80
3180
6000
6000
7800
3E00
0F00
0300
0300
C300
C600
FE00
7800
ENDCHAR

STARTCHAR T
ENCODING 84
SWIDTH 420 0
DWIDTH 9 0
BBX 8 14 1 0
BITMAP
FF
FF
18
18
18
30
30
30
30
60
60
60
60
60
ENDCHAR

STARTCHAR U
ENCODING 85
SWIDTH 640 0
DWIDTH 12 0
BBX 11 14 0 0
BITMAP
3060
3060
3060
3060
60C0
60C0
60C0
60C0
C180
C180
C180
C300
FF00
7C00
ENDCHAR

STARTCHAR V
ENCODING 86
SWIDTH 700 0
DWIDTH 12 0
BBX 11 14 1 0
BITMAP
C060
C060
C0C0
C0C0
6180
6180
6300
6300
6600
3400
3C00
3800
3800
3000
ENDCHAR

STARTCHAR W
ENCODING 87
SWIDTH 900 0
DWIDTH 17 0
BBX 16 14 1 0
BITMAP
C183
C183
C386
C386
C78C
C68C
CC98
6CD8
68D0
78F0
70E0
70E0
60C0
60C0
ENDCHAR

STARTCHAR X
ENCODING 88
SWIDTH 680 0
DWIDTH 13 0
BBX 14 14 -1 0
BITMAP
1C1C
0C38
0E70
0660
06C0
03C0
0380
0780
07C0
0CC0
1CE0
3860
7070
E070
ENDCHAR

STARTCHAR Y
ENCODING 89
SWIDTH 620 0
DWIDTH 11 0
BBX 10 14 1 0
BITMAP
C0C0
C0C0
E180
6180
7300
3300
3600
3E00
1C00
1800
1800
3000
3000
3000
ENDCHAR

STARTCHAR Z
ENCODING 90
SWIDTH 500 0
DWIDTH 11 0
BBX 10 14 0 0
BITMAP
7FC0
7FC0
01C0
0380
0700
0600
0C00
1C00
3800
7000
E000
C000
FF80
FF80
ENDCHAR

STARTCHAR bracketleft
ENCODING 91
SWIDTH 320 0
DWIDTH 7 0
BBX 6 16 0 -2
BITMAP
1C
3C
30
30
30
60
60
60
60
60
C0
C0
C0
C0
F0
70
ENDCHAR

STARTCHAR backslash
ENCODING 92
SWIDTH 640 0
DWIDTH 11 0
BBX 6 14 2 0
BITMAP
C0
C0
C0
60
60
60
30
30
30
18
18
18
0C
0C
ENDCHAR

STARTCHAR bracketright
ENCODING 93
SWIDTH 320 0
DWIDTH 7 0
BBX 6 16 0 -2
BITMAP
38
3C
0C
0C
0C
0C
18
18
18
18
18
30
30
30
F0
E0
ENDCHAR

STARTCHAR asciicircum
ENCODING 94
SWIDTH 600 0
DWIDTH 11 0
BBX 8 9 1 5
BITMAP
0C
1C
1C
36
36
66
63
C3
C3
ENDCHAR

STARTCHAR underscore
ENCODING 95
SWIDTH 500 0
DWIDTH 9 0
BBX 9 2 -1 -3
BITMAP
FF80
FF80
ENDCHAR

STARTCHAR quoteleft
ENCODING 96
SWIDTH 280 0
DWIDTH 4 0
BBX 2 5 1 9
BITMAP
40
80
C0
C0
C0
ENDCHAR

STARTCHAR a
ENCODING 97
SWIDTH 660 0
DWIDTH 12 0
BBX 11 11 0 0
BITMAP
0F60
3FE0
70E0
6060
C060
C060
C0C0
C1C0
E3C0
7EC0
3CC0
ENDCHAR

STARTCHAR b
ENCODING 98
SWIDTH 660 0
DWIDTH 12 0
BBX 11 14 0 0
BITMAP
3000
3000
3000
3780
6FC0
78E0
7060
6060
6060
C060
C0E0
E1C0
FF80
DE00
ENDCHAR

STARTCHAR c
ENCODING 99
SWIDTH 640 0
DWIDTH 11 0
BBX 10 11 0 0
BITMAP
0F00
3F80
71C0
60C0
C000
C000
C000
C1C0
E380
7F00
3C00
ENDCHAR

STARTCHAR d
ENCODING 100
SWIDTH 660 0
DWIDTH 12 0
BBX 12 14 0 0
BITMAP
0030
0030
0030
0F30
3FF0
70E0
6060
C060
C060
C0E0
C1C0
E3C0
7EC0
3CC0
ENDCHAR

STARTCHAR e
ENCODING 101
SWIDTH 640 0
DWIDTH 11 0
BBX 10 11 0 0
BITMAP
0F00
3F80
71C0
60C0
FFC0
FFC0
C000
C000
E380
7F00
3C00
ENDCHAR

STARTCHAR f
ENCODING 102
SWIDTH 280 0
DWIDTH 6 0
BBX 6 14 1 0
BITMAP
1C
3C
30
F8
F8
60
60
60
60
C0
C0
C0
C0
C0
ENDCHAR

STARTCHAR g
ENCODING 103
SWIDTH 660 0
DWIDTH 12 0
BBX 11 14 0 -3
BITMAP
0F60
3FE0
70E0
6060
C060
C060
C0C0
C1C0
E3C0
7EC0
3DC0
C180
FF80
7E00
ENDCHAR

STARTCHAR h
ENCODING 104
SWIDTH 600 0
DWIDTH 11 0
BBX 10 14 0 0
BITMAP
3000
3000
3000
3780
7FC0
70C0
60C0
60C0
60C0
C180
C180
C180
C180
C180
ENDCHAR

STARTCHAR i
ENCODING 105
SWIDTH 240 0
DWIDTH 6 0
BBX 4 14 1 0
BITMAP
30
30
00
60
60
60
60
60
60
C0
C0
C0
C0
C0
ENDCHAR

STARTCHAR j
ENCODING 106
SWIDTH 260 0
DWIDTH 6 0
BBX 7 17 -2 -3
BITMAP
06
06
00
0C
0C
0C
0C
0C
0C
18
18
18
18
18
38
F0
E0
ENDCHAR

STARTCHAR k
ENCODING 107
SWIDTH 580 0
DWIDTH 10 0
BBX 9 14 1 0
BITMAP
3000
3000
3000
3180
6300
6600
6C00
7800
7000
F800
DC00
CE00
C700
C300
ENDCHAR

STARTCHAR l
ENCODING 108
SWIDTH 240 0
DWIDTH 6 0
BBX 4 14 1 0
BITMAP
30
30
30
30
60
60
60
60
60
C0
C0
C0
C0
C0
ENDCHAR

STARTCHAR m
ENCODING 109
SWIDTH 940 0
DWIDTH 16 0
BBX 15 11 0 0
BITMAP
671C
7FFE
71C6
6186
6186
6186
C30C
C30C
C30C
C30C
C30C
ENDCHAR

STARTCHAR n
ENCODING 110
SWIDTH 600 0
DWIDTH 11 0
BBX 10 11 0 0
BITMAP
6780
7FC0
70C0
60C0
60C0
60C0
C180
C180
C180
C180
C180
ENDCHAR

STARTCHAR o
ENCODING 111
SWIDTH 640 0
DWIDTH 11 0
BBX 10 11 0 0
BITMAP
0F00
3F80
71C0
60C0
C0C0
C0C0
C0C0
C1C0
E380
7F00
3C00
ENDCHAR

STARTCHAR p
ENCODING 112
SWIDTH 660 0
DWIDTH 12 0
BBX 12 14 -1 -3
BITMAP
33C0
37E0
3C70
3830
3030
6030
6030
6070
70E0
7FC0
CF00
C000
C000
C000
ENDCHAR

STARTCHAR q
ENCODING 113
SWIDTH 660 0
DWIDTH 12 0
BBX 11 14 0 -3
BITMAP
0F60
3FE0
70E0
6060
C060
C0C0
C0C0
C1C0
E3C0
7EC0
3D80
0180
0180
0180
ENDCHAR

STARTCHAR r
ENCODING 114
SWIDTH 320 0
DWIDTH 7 0
BBX 6 11 1 0
BITMAP
6C
7C
70
60
60
60
C0
C0
C0
C0
C0
ENDCHAR

STARTCHAR s
ENCODING 115
SWIDTH 440 0
DWIDTH 9 0
BBX 8 11 0 0
BITMAP
1E
3F
63
60
70
3C
0E
06
C6
FC
78
ENDCHAR

STARTCHAR t
ENCODING 116
SWIDTH 300 0
DWIDTH 7 0
BBX 5 14 1 0
BITMAP
30
30
30
F8
F8
60
60
60
60
C0
C0
C0
C0
C0
ENDCHAR

STARTCHAR u
ENCODING 117
SWIDTH 600 0
DWIDTH 11 0
BBX 10 11 0 0
BITMAP
60C0
60C0
60C0
60C0
60C0
C180
C180
C180
C380
FF80
7980
ENDCHAR

STARTCHAR v
ENCODING 118
SWIDTH 560 0
DWIDTH 10 0
BBX 9 11 1 0
BITMAP
C180
C180
C300
C300
6600
6600
6C00
6C00
3800
3800
3000
ENDCHAR

STARTCHAR w
ENCODING 119
SWIDTH 800 0
DWIDTH 15 0
BBX 14 11 1 0
BITMAP
C30C
C30C
C718
C718
CD30
6DB0
79E0
79E0
71C0
71C0
6180
ENDCHAR

STARTCHAR x
ENCODING 120
SWIDTH 560 0
DWIDTH 11 0
BBX 12 11 -1 0
BITMAP
3870
18E0
1DC0
0F80
0F00
0600
0F00
1F00
3B80
7180
E1C0
ENDCHAR

STARTCHAR y
ENCODING 121
SWIDTH 580 0
DWIDTH 9 0
BBX 9 14 0 -3
BITMAP
C180
C180
C300
6300
6600
6600
3C00
3C00
3800
1800
3000
3000
6000
6000
ENDCHAR

STARTCHAR z
ENCODING 122
SWIDTH 460 0
DWIDTH 10 0
BBX 9 11 0 0
BITMAP
3F80
3F80
0380
0700
0E00
1C00
3800
7000
E000
FF00
FF00
ENDCHAR

STARTCHAR braceleft
ENCODING 123
SWIDTH 340 0
DWIDTH 7 0
BBX 6 16 0 -2
BITMAP
1C
30
30
30
30
30
20
C0
60
60
60
C0
C0
C0
C0
70
ENDCHAR

STARTCHAR bar
ENCODING 124
SWIDTH 600 0
DWIDTH 11 0
BBX 4 14 3 0
BITMAP
30
30
30
30
60
60
60
60
60
C0
C0
C0
C0
C0
ENDCHAR

STARTCHAR braceright
ENCODING 125
SWIDTH 340 0
DWIDTH 7 0
BBX 6 16 0 -2
BITMAP
38
0C
0C
0C
18
18
18
0C
10
30
30
30
30
30
30
E0
ENDCHAR

STARTCHAR asciitilde
ENCODING 126
SWIDTH 600 0
DWIDTH 11 0
BBX 10 3 0 5
BITMAP
38C0
FFC0
C700
ENDCHAR

STARTCHAR space
ENCODING 160
SWIDTH 280 0
DWIDTH 5 0
BBX 1 1 0 0
BITMAP
00
ENDCHAR

STARTCHAR exclamdown
ENCODING 161
SWIDTH 280 0
DWIDTH 5 0
BBX 4 14 0 -3
BITMAP
30
30
30
00
60
60
60
60
60
C0
C0
C0
C0
C0
ENDCHAR

STARTCHAR cent
ENCODING 162
SWIDTH 560 0
DWIDTH 10 0
BBX 9 13 0 0
BITMAP
0600
0600
1F00
7F80
6180
C000
C000
C000
6300
7F00
1C00
1800
1800
ENDCHAR

STARTCHAR sterling
ENCODING 163
SWIDTH 560 0
DWIDTH 11 0
BBX 10 14 0 0
BITMAP
0F00
3F80
30C0
60C0
6000
3000
FF00
FF00
1800
18C0
30C0
6180
FF80
FE00
ENDCHAR

STARTCHAR currency
ENCODING 164
SWIDTH 600 0
DWIDTH 10 0
BBX 10 8 0 3
BITMAP
6EC0
7FC0
3180
6180
6180
6300
FF80
DD80
ENDCHAR

STARTCHAR yen
ENCODING 165
SWIDTH 560 0
DWIDTH 10 0
BBX 12 14 -1 0
BITMAP
3030
3060
30C0
1980
1B00
7FC0
7FC0
0C00
0C00
FF80
FF80
1800
1800
1800
ENDCHAR

STARTCHAR brokenbar
ENCODING 166
SWIDTH 600 0
DWIDTH 11 0
BBX 4 14 3 0
BITMAP
30
30
30
30
30
30
00
00
C0
C0
C0
C0
C0
C0
ENDCHAR

STARTCHAR section
ENCODING 167
SWIDTH 560 0
DWIDTH 11 0
BBX 10 16 0 -2
BITMAP
0780
0FC0
18C0
18C0
1C00
3F00
6380
6180
7180
3F00
0E00
0300
C300
C600
FE00
7800
ENDCHAR

STARTCHAR dieresis
ENCODING 168
SWIDTH 500 0
DWIDTH 9 0
BBX 6 2 1 12
BITMAP
CC
CC
ENDCHAR

STARTCHAR copyright
ENCODING 169
SWIDTH 740 0
DWIDTH 15 0
BBX 15 14 0 0
BITMAP
07E0
1C18
3004
67C4
4C62
D822
9002
9002
9066
98C4
4F8C
4018
3070
0FC0
ENDCHAR

STARTCHAR ordfeminine
ENCODING 170
SWIDTH 360 0
DWIDTH 7 0
BBX 7 8 0 6
BITMAP
3A
CE
86
84
DC
76
00
FC
ENDCHAR

STARTCHAR guillemotleft
ENCODING 171
SWIDTH 460 0
DWIDTH 9 0
BBX 8 7 0 3
BITMAP
11
33
66
CC
CC
66
22
ENDCHAR

STARTCHAR logicalnot
ENCODING 172
SWIDTH 600 0
DWIDTH 11 0
BBX 9 5 0 3
BITMAP
FF80
FF80
0180
0300
0300
ENDCHAR

STARTCHAR hyphen
ENCODING 173
SWIDTH 420 0
DWIDTH 8 0
BBX 7 2 0 5
BITMAP
FE
FE
ENDCHAR

STARTCHAR registered
ENCODING 174
SWIDTH 740 0
DWIDTH 15 0
BBX 15 14 0 0
BITMAP
07E0
1C18
3004
67C4
4422
C422
8462
8FC2
8886
8844
484C
4018
3070
0FC0
ENDCHAR

STARTCHAR macron
ENCODING 175
SWIDTH 420 0
DWIDTH 7 0
BBX 5 1 1 12
BITMAP
F8
ENDCHAR

STARTCHAR degree
ENCODING 176
SWIDTH 400 0
DWIDTH 7 0
BBX 6 5 1 9
BITMAP
7C
CC
84
CC
F8
ENDCHAR

STARTCHAR plusminus
ENCODING 177
SWIDTH 600 0
DWIDTH 11 0
BBX 10 11 0 0
BITMAP
0600
0600
0600
7FC0
7FC0
0C00
0C00
0C00
0000
FF80
FF80
ENDCHAR

STARTCHAR twosuperior
ENCODING 178
SWIDTH 336 0
DWIDTH 6 0
BBX 6 8 0 6
BITMAP
38
7C
CC
18
30
60
F8
F8
ENDCHAR

STARTCHAR threesuperior
ENCODING 179
SWIDTH 336 0
DWIDTH 6 0
BBX 6 8 0 6
BITMAP
38
7C
4C
38
1C
CC
F8
70
ENDCHAR

STARTCHAR acute
ENCODING 180
SWIDTH 420 0
DWIDTH 8 0
BBX 4 3 2 11
BITMAP
30
60
C0
ENDCHAR

STARTCHAR mu
ENCODING 181
SWIDTH 576 0
DWIDTH 11 0
BBX 11 14 -1 -3
BITMAP
3060
3060
3060
3060
3060
60C0
60C0
60C0
61C0
7FC0
DCC0
C000
C000
C000
ENDCHAR

STARTCHAR paragraph
ENCODING 182
SWIDTH 600 0
DWIDTH 12 0
BBX 11 16 0 -2
BITMAP
1FE0
7FE0
7E60
FE60
FE60
FCC0
7CC0
3CC0
0CC0
0CC0
1980
1980
1980
1980
1980
1980
ENDCHAR

STARTCHAR periodcentered
ENCODING 183
SWIDTH 280 0
DWIDTH 5 0
BBX 3 2 0 5
BITMAP
E0
E0
ENDCHAR

STARTCHAR cedilla
ENCODING 184
SWIDTH 340 0
DWIDTH 6 0
BBX 4 4 -1 -4
BITMAP
20
30
90
60
ENDCHAR

STARTCHAR onesuperior
ENCODING 185
SWIDTH 336 0
DWIDTH 6 0
BBX 3 8 1 6
BITMAP
E0
60
60
60
C0
C0
C0
C0
ENDCHAR

STARTCHAR ordmasculine
ENCODING 186
SWIDTH 360 0
DWIDTH 7 0
BBX 7 8 0 6
BITMAP
3C
66
C6
C6
CC
78
00
FC
ENDCHAR

STARTCHAR guillemotright
ENCODING 187
SWIDTH 460 0
DWIDTH 10 0
BBX 8 7 0 3
BITMAP
44
66
33
33
66
CC
88
ENDCHAR

STARTCHAR onequarter
ENCODING 188
SWIDTH 840 0
DWIDTH 15 0
BBX 12 14 2 0
BITMAP
E180
6180
6300
6300
C600
C600
CC70
CCF0
19B0
1B60
3660
37F0
60C0
60C0
ENDCHAR

STARTCHAR onehalf
ENCODING 189
SWIDTH 840 0
DWIDTH 15 0
BBX 12 14 2 0
BITMAP
E180
6180
6300
6300
C600
C600
CCE0
CDF0
1B30
1860
30C0
3180
63E0
63E0
ENDCHAR

STARTCHAR threequarters
ENCODING 190
SWIDTH 840 0
DWIDTH 15 0
BBX 14 14 0 0
BITMAP
3860
7C60
4CC0
38C0
1D80
CD80
FB1C
733C
066C
06D8
0D98
0DFC
1830
1830
ENDCHAR

STARTCHAR questiondown
ENCODING 191
SWIDTH 560 0
DWIDTH 8 0
BBX 7 14 0 -3
BITMAP
06
06
06
00
0C
1C
38
70
E0
C0
C6
C6
FC
78
ENDCHAR

STARTCHAR Agrave
ENCODING 192
SWIDTH 740 0
DWIDTH 13 0
BBX 12 18 -1 0
BITMAP
0C00
0600
0300
0000
0300
0380
0780
0780
0CC0
0CC0
18C0
1860
3FE0
3FE0
6060
6030
C030
C030
ENDCHAR

STARTCHAR Aacute
ENCODING 193
SWIDTH 740 0
DWIDTH 13 0
BBX 12 18 -1 0
BITMAP
0060
00C0
0180
0000
0300
0380
0780
0780
0CC0
0CC0
18C0
1860
3FE0
3FE0
6060
6030
C030
C030
ENDCHAR

STARTCHAR Acircumflex
ENCODING 194
SWIDTH 740 0
DWIDTH 13 0
BBX 12 18 -1 0
BITMAP
0300
0780
0CC0
0000
0300
0380
0780
0780
0CC0
0CC0
18C0
1860
3FE0
3FE0
6060
6030
C030
C030
ENDCHAR

STARTCHAR Atilde
ENCODING 195
SWIDTH 740 0
DWIDTH 13 0
BBX 12 17 -1 0
BITMAP
0760
0DC0
0000
0300
0380
0780
0780
0CC0
0CC0
18C0
1860
3FE0
3FE0
6060
6030
C030
C030
ENDCHAR

STARTCHAR Adieresis
ENCODING 196
SWIDTH 740 0
DWIDTH 13 0
BBX 12 17 -1 0
BITMAP
0CC0
0CC0
0000
0300
0380
0780
0780
0CC0
0CC0
18C0
1860
3FE0
3FE0
6060
6030
C030
C030
ENDCHAR

STARTCHAR Aring
ENCODING 197
SWIDTH 740 0
DWIDTH 13 0
BBX 12 19 -1 0
BITMAP
0300
0480
0480
0300
0000
0300
0380
0780
0780
0CC0
0CC0
18C0
1860
3FE0
3FE0
6060
6030
C030
C030
ENDCHAR

STARTCHAR AE
ENCODING 198
SWIDTH 900 0
DWIDTH 18 0
BBX 17 14 -1 0
BITMAP
00FF80
01FF80
01B000
033000
033000
066000
0E7F00
0C7F00
186000
1FC000
3FC000
70C000
60FE00
E0FE00
ENDCHAR

STARTCHAR Ccedilla
ENCODING 199
SWIDTH 780 0
DWIDTH 14 0
BBX 13 18 0 -4
BITMAP
03C0
0FF0
3C30
3018
6018
6000
C000
C000
C000
C000
C060
61E0
7F80
1E00
0800
0C00
2400
1800
ENDCHAR

STARTCHAR Egrave
ENCODING 200
SWIDTH 520 0
DWIDTH 10 0
BBX 9 18 0 0
BITMAP
1800
0C00
0600
0000
3F80
3F80
3000
3000
6000
6000
7F00
7F00
6000
C000
C000
C000
FE00
FE00
ENDCHAR

STARTCHAR Eacute
ENCODING 201
SWIDTH 520 0
DWIDTH 10 0
BBX 9 18 0 0
BITMAP
0180
0300
0600
0000
3F80
3F80
3000
3000
6000
6000
7F00
7F00
6000
C000
C000
C000
FE00
FE00
ENDCHAR

STARTCHAR Ecircumflex
ENCODING 202
SWIDTH 520 0
DWIDTH 10 0
BBX 9 18 0 0
BITMAP
0600
0F00
1980
0000
3F80
3F80
3000
3000
6000
6000
7F00
7F00
6000
C000
C000
C000
FE00
FE00
ENDCHAR

STARTCHAR Edieresis
ENCODING 203
SWIDTH 520 0
DWIDTH 10 0
BBX 9 17 0 0
BITMAP
1980
1980
0000
3F80
3F80
3000
3000
6000
6000
7F00
7F00
6000
C000
C000
C000
FE00
FE00
ENDCHAR

STARTCHAR Igrave
ENCODING 204
SWIDTH 280 0
DWIDTH 5 0
BBX 5 18 0 0
BITMAP
60
30
18
00
30
30
30
30
60
60
60
60
60
C0
C0
C0
C0
C0
ENDCHAR

STARTCHAR Iacute
ENCODING 205
SWIDTH 280 0
DWIDTH 5 0
BBX 6 18 0 0
BITMAP
0C
18
30
00
30
30
30
30
60
60
60
60
60
C0
C0
C0
C0
C0
ENDCHAR

STARTCHAR Icircumflex
ENCODING 206
SWIDTH 280 0
DWIDTH 5 0
BBX 7 18 0 0
BITMAP
18
3C
66
00
30
30
30
30
60
60
60
60
60
C0
C0
C0
C0
C0
ENDCHAR

STARTCHAR Idieresis
ENCODING 207
SWIDTH 280 0
DWIDTH 5 0
BBX 6 17 0 0
BITMAP
6C
6C
00
30
30
30
30
60
60
60
60
60
C0
C0
C0
C0
C0
ENDCHAR

STARTCHAR Eth
ENCODING 208
SWIDTH 742 0
DWIDTH 13 0
BBX 13 14 -1 0
BITMAP
1FC0
1FF0
1830
1818
3018
3018
FC18
FC18
3030
6030
6060
61E0
7F80
7E00
ENDCHAR

STARTCHAR Ntilde
ENCODING 209
SWIDTH 740 0
DWIDTH 14 0
BBX 13 17 0 0
BITMAP
0760
0DC0
0000
3018
3818
3818
3C18
6C30
6630
6630
6330
6330
C1A0
C1E0
C0E0
C0E0
C060
ENDCHAR

STARTCHAR Ograve
ENCODING 210
SWIDTH 840 0
DWIDTH 14 0
BBX 13 18 0 0
BITMAP
0300
0180
00C0
0000
03C0
0FF0
3C30
3018
6018
6018
C018
C018
C030
C030
C060
61E0
7F80
1E00
ENDCHAR

STARTCHAR Oacute
ENCODING 211
SWIDTH 840 0
DWIDTH 14 0
BBX 13 18 0 0
BITMAP
0030
0060
00C0
0000
03C0
0FF0
3C30
3018
6018
6018
C018
C018
C030
C030
C060
61E0
7F80
1E00
ENDCHAR

STARTCHAR Ocircumflex
ENCODING 212
SWIDTH 840 0
DWIDTH 14 0
BBX 13 18 0 0
BITMAP
0180
03C0
0660
0000
03C0
0FF0
3C30
3018
6018
6018
C018
C018
C030
C030
C060
61E0
7F80
1E00
ENDCHAR

STARTCHAR Otilde
ENCODING 213
SWIDTH 840 0
DWIDTH 14 0
BBX 13 17 0 0
BITMAP
03B0
06E0
0000
03C0
0FF0
3C30
3018
6018
6018
C018
C018
C030
C030
C060
61E0
7F80
1E00
ENDCHAR

STARTCHAR Odieresis
ENCODING 214
SWIDTH 840 0
DWIDTH 14 0
BBX 13 17 0 0
BITMAP
0330
0330
0000
03C0
0FF0
3C30
3018
6018
6018
C018
C018
C030
C030
C060
61E0
7F80
1E00
ENDCHAR

STARTCHAR multiply
ENCODING 215
SWIDTH 600 0
DWIDTH 11 0
BBX 11 10 0 1
BITMAP
6060
70E0
39C0
1F80
0F00
1E00
3F00
7380
E1C0
C0C0
ENDCHAR

STARTCHAR Oslash
ENCODING 216
SWIDTH 840 0
DWIDTH 14 0
BBX 15 14 -1 0
BITMAP
01E6
07FC
1E18
183C
306C
30CC
618C
630C
6618
6C18
7830
30F0
7FC0
CF00
ENDCHAR

STARTCHAR Ugrave
ENCODING 217
SWIDTH 640 0
DWIDTH 12 0
BBX 11 18 0 0
BITMAP
0C00
0600
0300
0000
3060
3060
3060
3060
60C0
60C0
60C0
60C0
C180
C180
C180
C300
FF00
7C00
ENDCHAR

STARTCHAR Uacute
ENCODING 218
SWIDTH 640 0
DWIDTH 12 0
BBX 11 19 0 0
BITMAP
0060
00C0
0180
0300
0000
3060
3060
3060
3060
60C0
60C0
60C0
60C0
C180
C180
C180
C300
FF00
7C00
ENDCHAR

STARTCHAR Ucircumflex
ENCODING 219
SWIDTH 640 0
DWIDTH 12 0
BBX 11 18 0 0
BITMAP
0300
0780
0CC0
0000
3060
3060
3060
3060
60C0
60C0
60C0
60C0
C180
C180
C180
C300
FF00
7C00
ENDCHAR

STARTCHAR Udieresis
ENCODING 220
SWIDTH 640 0
DWIDTH 12 0
BBX 11 17 0 0
BITMAP
0CC0
0CC0
0000
3060
3060
3060
3060
60C0
60C0
60C0
60C0
C180
C180
C180
C300
FF00
7C00
ENDCHAR

STARTCHAR Yacute
ENCODING 221
SWIDTH 620 0
DWIDTH 11 0
BBX 10 18 1 0
BITMAP
0300
0600
0C00
0000
C0C0
C0C0
E180
6180
6300
7300
3600
3600
1C00
1C00
1800
3000
3000
3000
ENDCHAR

STARTCHAR Thorn
ENCODING 222
SWIDTH 560 0
DWIDTH 10 0
BBX 10 14 0 0
BITMAP
3000
3000
3000
3F80
7FC0
60C0
60C0
60C0
6180
FF80
FE00
C000
C000
C000
ENDCHAR

STARTCHAR germandbls
ENCODING 223
SWIDTH 600 0
DWIDTH 11 0
BBX 10 14 0 0
BITMAP
0780
1FC0
18C0
30C0
3180
3700
6780
61C0
60C0
60C0
C0C0
D980
DF80
CE00
ENDCHAR

STARTCHAR agrave
ENCODING 224
SWIDTH 660 0
DWIDTH 12 0
BBX 11 15 0 0
BITMAP
0C00
0600
0300
0000
0F60
3FE0
70E0
6060
C060
C0C0
C0C0
C1C0
E3C0
7EC0
3CC0
ENDCHAR

STARTCHAR aacute
ENCODING 225
SWIDTH 660 0
DWIDTH 12 0
BBX 11 15 0 0
BITMAP
00C0
0180
0300
0000
0F60
3FE0
70E0
6060
C060
C0C0
C0C0
C1C0
E3C0
7EC0
3CC0
ENDCHAR

STARTCHAR acircumflex
ENCODING 226
SWIDTH 660 0
DWIDTH 12 0
BBX 11 15 0 0
BITMAP
0700
0D80
18C0
0000
0F60
3FE0
70E0
6060
C060
C0C0
C0C0
C1C0
E3C0
7EC0
3CC0
ENDCHAR

STARTCHAR atilde
ENCODING 227
SWIDTH 660 0
DWIDTH 12 0
BBX 11 14 0 0
BITMAP
0EC0
1B80
0000
0F60
3FE0
70E0
6060
C060
C0C0
C0C0
C1C0
E3C0
7EC0
3CC0
ENDCHAR

STARTCHAR adieresis
ENCODING 228
SWIDTH 660 0
DWIDTH 12 0
BBX 11 14 0 0
BITMAP
0CC0
0CC0
0000
0F60
3FE0
70E0
6060
C060
C0C0
C0C0
C1C0
E3C0
7EC0
3CC0
ENDCHAR

STARTCHAR aring
ENCODING 229
SWIDTH 660 0
DWIDTH 12 0
BBX 11 16 0 0
BITMAP
0300
0480
0480
0300
0000
0F60
3FE0
70E0
6060
C060
C0C0
C0C0
C1C0
E3C0
7EC0
3CC0
ENDCHAR

STARTCHAR ae
ENCODING 230
SWIDTH 1080 0
DWIDTH 19 0
BBX 18 11 0 0
BITMAP
0F6F00
3FFF80
70F1C0
6060C0
C07FC0
C0FFC0
C0C000
C1C000
E3E380
7EFF00
3CDC00
ENDCHAR

STARTCHAR ccedilla
ENCODING 231
SWIDTH 640 0
DWIDTH 11 0
BBX 10 15 0 -4
BITMAP
0F00
3F80
71C0
60C0
C000
C000
C000
C1C0
E380
7F00
3C00
0800
0C00
2400
1800
ENDCHAR

STARTCHAR egrave
ENCODING 232
SWIDTH 640 0
DWIDTH 11 0
BBX 10 15 0 0
BITMAP
1800
0C00
0600
0000
0F00
3F80
71C0
60C0
FFC0
FFC0
C000
C000
E380
7F00
3C00
ENDCHAR

STARTCHAR eacute
ENCODING 233
SWIDTH 640 0
DWIDTH 11 0
BBX 10 15 0 0
BITMAP
0180
0300
0600
0000
0F00
3F80
71C0
60C0
FFC0
FFC0
C000
C000
E380
7F00
3C00
ENDCHAR

STARTCHAR ecircumflex
ENCODING 234
SWIDTH 640 0
DWIDTH 11 0
BBX 10 15 0 0
BITMAP
0E00
1B00
3180
0000
0F00
3F80
71C0
60C0
FFC0
FFC0
C000
C000
E380
7F00
3C00
ENDCHAR

STARTCHAR edieresis
ENCODING 235
SWIDTH 640 0
DWIDTH 11 0
BBX 10 14 0 0
BITMAP
1980
1980
0000
0F00
3F80
71C0
60C0
FFC0
FFC0
C000
C000
E380
7F00
3C00
ENDCHAR

STARTCHAR igrave
ENCODING 236
SWIDTH 240 0
DWIDTH 6 0
BBX 4 15 1 0
BITMAP
C0
60
30
00
60
60
60
60
60
60
C0
C0
C0
C0
C0
ENDCHAR

STARTCHAR iacute
ENCODING 237
SWIDTH 240 0
DWIDTH 6 0
BBX 5 15 1 0
BITMAP
18
30
60
00
60
60
60
60
60
60
C0
C0
C0
C0
C0
ENDCHAR

STARTCHAR icircumflex
ENCODING 238
SWIDTH 240 0
DWIDTH 6 0
BBX 6 15 0 0
BITMAP
30
78
CC
00
30
30
30
30
30
30
60
60
60
60
60
ENDCHAR

STARTCHAR idieresis
ENCODING 239
SWIDTH 240 0
DWIDTH 6 0
BBX 6 14 0 0
BITMAP
CC
CC
00
30
30
30
30
30
30
60
60
60
60
60
ENDCHAR

STARTCHAR eth
ENCODING 240
SWIDTH 640 0
DWIDTH 11 0
BBX 10 14 0 0
BITMAP
1B00
0E00
1300
0F80
3F80
71C0
60C0
C0C0
C0C0
C0C0
C1C0
E380
7F00
3C00
ENDCHAR

STARTCHAR ntilde
ENCODING 241
SWIDTH 600 0
DWIDTH 11 0
BBX 10 14 0 0
BITMAP
0EC0
1B80
0000
6780
7FC0
70C0
60C0
60C0
60C0
C180
C180
C180
C180
C180
ENDCHAR

STARTCHAR ograve
ENCODING 242
SWIDTH 640 0
DWIDTH 11 0
BBX 10 15 0 0
BITMAP
1800
0C00
0600
0000
0F00
3F80
71C0
60C0
C0C0
C0C0
C0C0
C1C0
E380
7F00
3C00
ENDCHAR

STARTCHAR oacute
ENCODING 243
SWIDTH 640 0
DWIDTH 11 0
BBX 10 15 0 0
BITMAP
0180
0300
0600
0000
0F00
3F80
71C0
60C0
C0C0
C0C0
C0C0
C1C0
E380
7F00
3C00
ENDCHAR

STARTCHAR ocircumflex
ENCODING 244
SWIDTH 640 0
DWIDTH 11 0
BBX 10 15 0 0
BITMAP
0600
0F00
1980
0000
0F00
3F80
71C0
60C0
C0C0
C0C0
C0C0
C1C0
E380
7F00
3C00
ENDCHAR

STARTCHAR otilde
ENCODING 245
SWIDTH 640 0
DWIDTH 11 0
BBX 10 14 0 0
BITMAP
0EC0
1B80
0000
0F00
3F80
71C0
60C0
C0C0
C0C0
C0C0
C1C0
E380
7F00
3C00
ENDCHAR

STARTCHAR odieresis
ENCODING 246
SWIDTH 640 0
DWIDTH 11 0
BBX 10 14 0 0
BITMAP
1980
1980
0000
0F00
3F80
71C0
60C0
C0C0
C0C0
C0C0
C1C0
E380
7F00
3C00
ENDCHAR

STARTCHAR divide
ENCODING 247
SWIDTH 600 0
DWIDTH 11 0
BBX 9 8 1 2
BITMAP
0C00
0C00
0000
FF80
FF80
0000
1800
1800
ENDCHAR

STARTCHAR oslash
ENCODING 248
SWIDTH 660 0
DWIDTH 11 0
BBX 12 11 -1 0
BITMAP
07B0
1FE0
38E0
31E0
6360
6660
6C60
78E0
71C0
7F80
DE00
ENDCHAR

STARTCHAR ugrave
ENCODING 249
SWIDTH 600 0
DWIDTH 11 0
BBX 10 15 0 0
BITMAP
1800
0C00
0600
0000
60C0
60C0
60C0
60C0
60C0
C180
C180
C180
C380
FF80
7980
ENDCHAR

STARTCHAR uacute
ENCODING 250
SWIDTH 600 0
DWIDTH 11 0
BBX 10 15 0 0
BITMAP
0180
0300
0600
0000
60C0
60C0
60C0
60C0
60C0
C180
C180
C180
C380
FF80
7980
ENDCHAR

STARTCHAR ucircumflex
ENCODING 251
SWIDTH 600 0
DWIDTH 11 0
BBX 10 15 0 0
BITMAP
0600
0F00
1980
0000
60C0
60C0
60C0
60C0
60C0
C180
C180
C180
C380
FF80
7980
ENDCHAR

STARTCHAR udieresis
ENCODING 252
SWIDTH 600 0
DWIDTH 11 0
BBX 10 14 0 0
BITMAP
1980
1980
0000
60C0
60C0
60C0
60C0
60C0
C180
C180
C180
C380
FF80
7980
ENDCHAR

STARTCHAR yacute
ENCODING 253
SWIDTH 580 0
DWIDTH 9 0
BBX 9 18 0 -3
BITMAP
0300
0600
0C00
0000
C180
C180
C300
6300
6600
6600
3C00
3C00
3800
1800
3000
3000
6000
6000
ENDCHAR

STARTCHAR thorn
ENCODING 254
SWIDTH 660 0
DWIDTH 12 0
BBX 12 17 -1 -3
BITMAP
1800
1800
1800
1BC0
37E0
3C70
3830
3030
3030
6030
6070
70E0
7FC0
CF00
C000
C000
C000
ENDCHAR

STARTCHAR ydieresis
ENCODING 255
SWIDTH 580 0
DWIDTH 10 0
BBX 10 17 0 -3
BITMAP
3300
3300
0000
C0C0
C0C0
C180
6180
6300
6300
3600
3600
3C00
0C00
1800
1800
3000
3000
ENDCHAR
ENDFONT
